<svg width="192" height="240" viewBox="0 0 192 240" fill="none" xmlns="http://www.w3.org/2000/svg">
  <!-- Google Maps Pin Icon -->
  <g>
    <path d="M96 16C76.118 16 60 32.118 60 52C60 71.882 76.118 88 96 88C115.882 88 132 71.882 132 52C132 32.118 115.882 16 96 16Z" fill="#EA4335"/>
    <path d="M96 16C115.882 16 132 32.118 132 52C132 71.882 115.882 88 96 88V16Z" fill="#4285F4"/>
    <path d="M96 88C76.118 88 60 71.882 60 52C60 32.118 76.118 16 96 16V88Z" fill="#FBBC04"/>
    <path d="M60 52L96 88L132 52L96 16L60 52Z" fill="#34A853"/>
    <circle cx="96" cy="52" r="20" fill="#1A1A1A"/>
  </g>
  <!-- Google Maps Text -->
  <text x="96" y="120" font-family="Arial, sans-serif" font-size="18" fill="#5F6368" text-anchor="middle" font-weight="400">Google Maps</text>
</svg>
